# xmcd
#
# Track frame offsets:
#	150
#	13383
#	26327
#	38765
#	50937
#	63608
#	75469
#	87343
#	99103
#	112749
#	125188
#	139092
#	150003
#	163095
#	176158
#	187812
#	199931
#	212026
#	224354
#	235971
#	247516
#	259884
#	271806
#	285701
#	296124
#
# Disc length: 4103 seconds
#
# Revision: 1
# Processed by: cddbd v1.5.2PL0 Copyright (c) Steve Scherf et al.
# Submitted via: audiograbber 1.83.01
#
DISCID=65100519
DTITLE=The Delmore Brothers - More From the 1930s plus the 1940s and 1950s, Cd 
DTITLE=D
DYEAR=1900
DGENRE=Country
TTITLE0=Fox Chase
TTITLE1=Green Valley Waltz
TTITLE2=Under the Double Eagle
TTITLE3=Fast Train Through Arkansas
TTITLE4=Jack and Jill Boogie
TTITLE5=Lonesome Wind Blues
TTITLE6=Lost John Boogie
TTITLE7=Jole Blon's Ghost
TTITLE8=Why Don't You Haul Off and Love Me
TTITLE9=Del Rio Boogie
TTITLE10=Red Ball to Natchez
TTITLE11=Don't Know Why
TTITLE12=I've Done and Sold My Soul
TTITLE13=I Love My Little Yo Yo
TTITLE14=Pardon My Whiskers
TTITLE15=If You've Got the Money
TTITLE16=Real Hot Boogie
TTITLE17=My Annabelle Lee
TTITLE18=The Family Tree Musta Fell on Me
TTITLE19=I Ain't Nothin' But a Tom Cat's Kitten
TTITLE20=I Had My Fingers Crossed
TTITLE21=Catfish Baby
TTITLE22=Blues at My Door
TTITLE23=When They Let the Hammer Down
TTITLE24=Delemore Brothers - Steamboat Bill Boogie
EXTD=
EXTT0=
EXTT1=
EXTT2=
EXTT3=
EXTT4=
EXTT5=
EXTT6=
EXTT7=
EXTT8=
EXTT9=
EXTT10=
EXTT11=
EXTT12=
EXTT13=
EXTT14=
EXTT15=
EXTT16=
EXTT17=
EXTT18=
EXTT19=
EXTT20=
EXTT21=
EXTT22=
EXTT23=
EXTT24=
PLAYORDER=
